<?xml version="1.0" encoding="UTF-8"?>
<!DOCTYPE svg PUBLIC "-//W3C//DTD SVG 1.1//EN" "http://www.w3.org/Graphics/SVG/1.1/DTD/svg11.dtd">
<svg xmlns="http://www.w3.org/2000/svg" version="1.1" width="500px" height="500px" style="shape-rendering:geometricPrecision; text-rendering:geometricPrecision; image-rendering:optimizeQuality; fill-rule:evenodd; clip-rule:evenodd" xmlns:xlink="http://www.w3.org/1999/xlink">
<g><path style="opacity:0.266" fill="#d3d0cd" d="M 247.5,134.5 C 287.537,135.198 327.537,135.531 367.5,135.5C 367.5,135.833 367.5,136.167 367.5,136.5C 319.5,136.5 271.5,136.5 223.5,136.5C 231.5,135.833 239.5,135.167 247.5,134.5 Z"/></g>
<g><path style="opacity:0.997" fill="#fefdfd" d="M 71.5,160.5 C 74.071,165.537 76.071,170.871 77.5,176.5C 79.8703,185.622 83.2036,194.289 87.5,202.5C 89.4032,205.53 90.7365,208.863 91.5,212.5C 94.2077,222.636 97.8744,232.303 102.5,241.5C 103.199,246.272 104.866,250.605 107.5,254.5C 108.199,259.272 109.866,263.605 112.5,267.5C 115.821,279.142 119.988,290.476 125,301.5C 129.713,292.672 133.213,283.338 135.5,273.5C 154.051,228.698 171.551,183.364 188,137.5C 199.753,136.512 211.586,136.179 223.5,136.5C 271.5,136.5 319.5,136.5 367.5,136.5C 387,137.623 405.334,142.623 422.5,151.5C 422.833,151.5 423.167,151.5 423.5,151.5C 423.414,152.496 423.748,153.329 424.5,154C 437.612,162.613 448.945,173.113 458.5,185.5C 461.839,188.835 464.172,192.835 465.5,197.5C 466.376,201.582 468.043,205.249 470.5,208.5C 472.295,216.004 474.295,223.338 476.5,230.5C 477.773,245.046 477.773,259.38 476.5,273.5C 475.681,275.772 475.015,278.106 474.5,280.5C 473.503,280.47 472.836,280.97 472.5,282C 469.159,291.84 465.159,301.34 460.5,310.5C 458.45,312.237 456.617,314.237 455,316.5C 454.492,314.096 453.325,313.429 451.5,314.5C 452.833,315.5 452.833,316.5 451.5,317.5C 452.167,317.833 452.833,318.167 453.5,318.5C 452.711,320.488 451.545,320.821 450,319.5C 448.833,320.667 447.667,321.833 446.5,323C 447.167,323.667 447.833,324.333 448.5,325C 447.748,325.671 447.414,326.504 447.5,327.5C 445.038,330.464 442.371,333.297 439.5,336C 434.949,339.434 430.282,342.601 425.5,345.5C 392.697,364.189 358.364,367.522 322.5,355.5C 320.727,354.108 318.727,352.941 316.5,352C 317.815,350.605 317.481,349.605 315.5,349C 316.448,348.517 317.448,348.351 318.5,348.5C 318.649,347.448 318.483,346.448 318,345.5C 317.009,346.939 315.676,347.939 314,348.5C 313.667,347.833 313.333,347.167 313,346.5C 311.867,348.211 310.367,348.711 308.5,348C 302.11,343.813 295.776,339.646 289.5,335.5C 254.524,301.045 243.691,260.045 257,212.5C 258.782,207.771 260.949,203.271 263.5,199C 278.167,198.333 292.833,198.333 307.5,199C 303.467,202.856 300.467,207.356 298.5,212.5C 297.07,216.354 295.403,220.021 293.5,223.5C 289.549,231.592 287.882,240.259 288.5,249.5C 287.808,257.663 289.142,265.33 292.5,272.5C 293.021,277.087 294.688,281.087 297.5,284.5C 303.432,294.096 310.765,302.43 319.5,309.5C 318.668,310.329 319.001,311.162 320.5,312C 338.309,324.124 357.642,327.958 378.5,323.5C 384.478,321.73 390.478,319.73 396.5,317.5C 421.902,305.219 436.402,284.886 440,256.5C 441.306,244.005 439.473,232.005 434.5,220.5C 434.043,219.702 433.376,219.369 432.5,219.5C 432.5,219.167 432.5,218.833 432.5,218.5C 432.938,218.565 433.272,218.399 433.5,218C 427.787,205.8 419.454,195.966 408.5,188.5C 406.147,187.66 404.147,186.326 402.5,184.5C 393.849,178.558 384.183,175.058 373.5,174C 320.168,173.5 266.834,173.333 213.5,173.5C 202.167,204.5 190.833,235.5 179.5,266.5C 177.027,270.459 175.36,274.793 174.5,279.5C 170.804,285.248 168.47,291.581 167.5,298.5C 158.606,319.162 150.273,340.162 142.5,361.5C 130.938,362.82 119.438,362.82 108,361.5C 79.0085,286.693 50.5085,211.693 22.5,136.5C 35.5171,136.168 48.5171,136.501 61.5,137.5C 64.5862,145.333 67.9196,152.999 71.5,160.5 Z"/></g>
<g><path style="opacity:0.243" fill="#c0baba" d="M 367.5,136.5 C 367.5,136.167 367.5,135.833 367.5,135.5C 387.536,135.421 405.869,140.754 422.5,151.5C 405.334,142.623 387,137.623 367.5,136.5 Z"/></g>
<g><path style="opacity:0.318" fill="#c3baba" d="M 247.5,134.5 C 239.5,135.167 231.5,135.833 223.5,136.5C 211.586,136.179 199.753,136.512 188,137.5C 171.551,183.364 154.051,228.698 135.5,273.5C 152.561,227.819 169.728,182.152 187,136.5C 189.74,135.718 192.574,135.218 195.5,135C 212.83,134.5 230.163,134.333 247.5,134.5 Z"/></g>
<g><path style="opacity:0.078" fill="#c6bfc0" d="M 423.5,151.5 C 437.808,160.142 449.475,171.475 458.5,185.5C 448.945,173.113 437.612,162.613 424.5,154C 423.748,153.329 423.414,152.496 423.5,151.5 Z"/></g>
<g><path style="opacity:0.016" fill="#bbb4b3" d="M 402.5,184.5 C 392.485,179.218 381.818,176.051 370.5,175C 324.324,174.776 278.158,174.609 232,174.5C 226.461,174.581 220.961,175.081 215.5,176C 203.38,206.21 191.38,236.376 179.5,266.5C 190.833,235.5 202.167,204.5 213.5,173.5C 266.834,173.333 320.168,173.5 373.5,174C 384.183,175.058 393.849,178.558 402.5,184.5 Z"/></g>
<g><path style="opacity:0.016" fill="#beb8b6" d="M 77.5,176.5 C 81.404,184.868 84.7373,193.535 87.5,202.5C 83.2036,194.289 79.8703,185.622 77.5,176.5 Z"/></g>
<g><path style="opacity:0.161" fill="#c1b9bc" d="M 408.5,188.5 C 419.454,195.966 427.787,205.8 433.5,218C 433.272,218.399 432.938,218.565 432.5,218.5C 429.858,213.227 426.691,208.227 423,203.5C 418.079,198.615 413.245,193.615 408.5,188.5 Z"/></g>
<g><path style="opacity:0.165" fill="#c1baba" d="M 465.5,197.5 C 467.957,200.751 469.624,204.418 470.5,208.5C 468.043,205.249 466.376,201.582 465.5,197.5 Z"/></g>
<g><path style="opacity:0.173" fill="#c3babc" d="M 71.5,160.5 C 67.9196,152.999 64.5862,145.333 61.5,137.5C 48.5171,136.501 35.5171,136.168 22.5,136.5C 50.5085,211.693 79.0085,286.693 108,361.5C 119.438,362.82 130.938,362.82 142.5,361.5C 150.273,340.162 158.606,319.162 167.5,298.5C 160.042,320.711 151.709,342.545 142.5,364C 132.167,364.667 121.833,364.667 111.5,364C 109.324,363.837 107.491,363.004 106,361.5C 77.5,286.667 49,211.833 20.5,137C 20.6448,136.228 20.9781,135.561 21.5,135C 34.8333,134.333 48.1667,134.333 61.5,135C 63.5628,137.511 65.0628,140.344 66,143.5C 67.9405,149.154 69.7738,154.821 71.5,160.5 Z"/></g>
<g><path style="opacity:0.157" fill="#c4bdbd" d="M 470.5,208.5 C 474.038,215.309 476.038,222.643 476.5,230.5C 474.295,223.338 472.295,216.004 470.5,208.5 Z"/></g>
<g><path style="opacity:0.09" fill="#bbb8b5" d="M 91.5,212.5 C 95.9642,221.779 99.6309,231.446 102.5,241.5C 97.8744,232.303 94.2077,222.636 91.5,212.5 Z"/></g>
<g><path style="opacity:0.439" fill="#bdb6b5" d="M 102.5,241.5 C 104.737,245.534 106.404,249.868 107.5,254.5C 104.866,250.605 103.199,246.272 102.5,241.5 Z"/></g>
<g><path style="opacity:0.035" fill="#c9c2c1" d="M 476.5,230.5 C 479.04,244.681 479.04,259.014 476.5,273.5C 477.773,259.38 477.773,245.046 476.5,230.5 Z"/></g>
<g><path style="opacity:0.153" fill="#c0b8b8" d="M 107.5,254.5 C 109.964,258.444 111.63,262.777 112.5,267.5C 109.866,263.605 108.199,259.272 107.5,254.5 Z"/></g>
<g><path style="opacity:0.184" fill="#bfbab7" d="M 293.5,223.5 C 288.576,239.734 288.242,256.068 292.5,272.5C 289.142,265.33 287.808,257.663 288.5,249.5C 287.882,240.259 289.549,231.592 293.5,223.5 Z"/></g>
<g><path style="opacity:0.129" fill="#c5bfbe" d="M 179.5,266.5 C 178.63,271.223 176.964,275.556 174.5,279.5C 175.36,274.793 177.027,270.459 179.5,266.5 Z"/></g>
<g><path style="opacity:0.106" fill="#c7c0bf" d="M 292.5,272.5 C 294.679,276.203 296.345,280.203 297.5,284.5C 294.688,281.087 293.021,277.087 292.5,272.5 Z"/></g>
<g><path style="opacity:0.282" fill="#bdb7b8" d="M 432.5,219.5 C 433.376,219.369 434.043,219.702 434.5,220.5C 439.473,232.005 441.306,244.005 440,256.5C 436.402,284.886 421.902,305.219 396.5,317.5C 434.36,294.429 446.36,261.763 432.5,219.5 Z"/></g>
<g><path style="opacity:0.098" fill="#c2bbbc" d="M 112.5,267.5 C 116.943,277.312 121.109,287.312 125,297.5C 128.613,289.474 132.113,281.474 135.5,273.5C 133.213,283.338 129.713,292.672 125,301.5C 119.988,290.476 115.821,279.142 112.5,267.5 Z"/></g>
<g><path style="opacity:0.114" fill="#c9c2c2" d="M 174.5,279.5 C 172.738,286.127 170.405,292.461 167.5,298.5C 168.47,291.581 170.804,285.248 174.5,279.5 Z"/></g>
<g><path style="opacity:0.122" fill="#beb7b7" d="M 474.5,280.5 C 471.42,291.322 466.753,301.322 460.5,310.5C 465.159,301.34 469.159,291.84 472.5,282C 472.836,280.97 473.503,280.47 474.5,280.5 Z"/></g>
<g><path style="opacity:0.133" fill="#bfb6b6" d="M 298.5,212.5 C 300.467,207.356 303.467,202.856 307.5,199C 292.833,198.333 278.167,198.333 263.5,199C 260.949,203.271 258.782,207.771 257,212.5C 243.691,260.045 254.524,301.045 289.5,335.5C 276.576,325.362 266.743,312.696 260,297.5C 245.696,263.808 246.196,230.642 261.5,198C 277.099,196.38 292.766,196.047 308.5,197C 309.517,198.049 309.684,199.216 309,200.5C 304.889,204.101 301.389,208.101 298.5,212.5 Z"/></g>
<g><path style="opacity:1" fill="#e1dedc" d="M 460.5,310.5 C 457.31,317.026 452.976,322.692 447.5,327.5C 447.414,326.504 447.748,325.671 448.5,325C 447.833,324.333 447.167,323.667 446.5,323C 447.667,321.833 448.833,320.667 450,319.5C 451.545,320.821 452.711,320.488 453.5,318.5C 452.833,318.167 452.167,317.833 451.5,317.5C 452.833,316.5 452.833,315.5 451.5,314.5C 453.325,313.429 454.492,314.096 455,316.5C 456.617,314.237 458.45,312.237 460.5,310.5 Z"/></g>
<g><path style="opacity:0.15" fill="#c9c5c2" d="M 319.5,309.5 C 337.211,322.045 356.877,326.712 378.5,323.5C 357.642,327.958 338.309,324.124 320.5,312C 319.001,311.162 318.668,310.329 319.5,309.5 Z"/></g>
<g><path style="opacity:0.953" fill="#dad4d5" d="M 289.5,335.5 C 295.776,339.646 302.11,343.813 308.5,348C 310.367,348.711 311.867,348.211 313,346.5C 313.333,347.167 313.667,347.833 314,348.5C 315.676,347.939 317.009,346.939 318,345.5C 318.483,346.448 318.649,347.448 318.5,348.5C 317.448,348.351 316.448,348.517 315.5,349C 317.481,349.605 317.815,350.605 316.5,352C 318.727,352.941 320.727,354.108 322.5,355.5C 309.944,351.252 298.944,344.585 289.5,335.5 Z"/></g>
<g><path style="opacity:0.035" fill="#c9c0c2" d="M 425.5,345.5 C 411.981,354.736 396.981,360.569 380.5,363C 363.555,364.65 346.888,363.317 330.5,359C 327.599,358.125 324.932,356.958 322.5,355.5C 358.364,367.522 392.697,364.189 425.5,345.5 Z"/></g>
</svg>
